<svg width="70" height="70" viewBox="0 0 70 70" fill="none" xmlns="http://www.w3.org/2000/svg">
<mask id="mask0_1833_2757" style="mask-type:alpha" maskUnits="userSpaceOnUse" x="0" y="0" width="70" height="70">
<rect width="70" height="70" fill="white"/>
</mask>
<g mask="url(#mask0_1833_2757)">
<g clip-path="url(#clip0_1833_2757)">
<path d="M56.9098 19.58C56.7698 19.44 56.5798 19.37 56.3798 19.38C56.2598 19.38 43.8598 19.82 35.5998 11.22C35.3298 10.93 34.8298 10.93 34.5498 11.22C26.2998 19.8 13.8898 19.38 13.7598 19.37C13.5698 19.37 13.3698 19.43 13.2298 19.57C13.0898 19.71 13.0098 19.9 13.0098 20.1C13.0098 50.06 34.5898 58.86 34.8098 58.95C34.8998 58.98 34.9898 59 35.0798 59C35.1698 59 35.2598 58.98 35.3498 58.95C35.5698 58.86 57.1498 50.06 57.1498 20.1C57.1498 19.9 57.0698 19.71 56.9298 19.57L56.9098 19.58ZM35.0698 57.48C32.6598 56.39 14.7898 47.4 14.4598 20.84C17.3298 20.81 27.5098 20.17 35.0698 12.76C42.6198 20.17 52.8098 20.81 55.6798 20.84C55.3498 47.41 37.4798 56.4 35.0698 57.48Z" fill="#555555"/>
<path d="M34.5498 18.97C28.9998 24.62 20.6298 24.34 20.5498 24.34C20.3598 24.32 20.1598 24.4 20.0198 24.54C19.8798 24.68 19.7998 24.87 19.7998 25.07C19.7998 45.21 34.6698 51.14 34.8198 51.2C34.8998 51.23 34.9898 51.25 35.0798 51.25C35.1698 51.25 35.2598 51.23 35.3398 51.2C35.4898 51.14 50.3598 45.22 50.3598 25.07C50.3598 24.87 50.2798 24.68 50.1398 24.54C49.9998 24.4 49.8098 24.32 49.6098 24.34C49.5298 24.34 41.1598 24.62 35.6098 18.97C35.3398 18.69 34.8498 18.69 34.5698 18.97H34.5498ZM48.8798 25.8C48.5598 43.11 37.0398 48.87 35.0698 49.73C33.1898 48.88 21.5698 42.95 21.2498 25.8C23.4798 25.75 30.0598 25.18 35.0598 20.5C40.0598 25.18 46.6398 25.75 48.8698 25.8H48.8798Z" fill="#555555"/>
<path d="M29.9698 30.54C29.9698 32.08 30.6598 33.51 31.8398 34.47L29.6998 41.37C29.6298 41.59 29.6698 41.83 29.8098 42.02C29.9498 42.21 30.1598 42.32 30.3998 42.32H39.7298C39.9598 42.32 40.1798 42.21 40.3198 42.02C40.4598 41.83 40.4998 41.59 40.4298 41.37L38.2898 34.48C39.4698 33.52 40.1598 32.08 40.1598 30.54C40.1598 27.73 37.8798 25.45 35.0698 25.45C32.2598 25.45 29.9798 27.74 29.9798 30.54H29.9698ZM38.6998 30.54C38.6998 31.77 38.0798 32.91 37.0398 33.59C36.7698 33.77 36.6498 34.11 36.7398 34.42L38.7398 40.87H31.3798L33.3798 34.42C33.4798 34.11 33.3498 33.77 33.0798 33.59C32.0398 32.91 31.4198 31.78 31.4198 30.54C31.4198 28.53 33.0498 26.9 35.0598 26.9C37.0698 26.9 38.6998 28.53 38.6998 30.54Z" fill="#555555"/>
</g>
</g>
<defs>
<clipPath id="clip0_1833_2757">
<rect width="44.13" height="48" fill="white" transform="translate(13 11)"/>
</clipPath>
</defs>
</svg>
